# xmcd
#
# Track frame offsets: 
#        150
#        12986
#        26026
#        40654
#        51884
#        63746
#        77995
#        92667
#        105815
#        118742
#
# Disc length: 1750 seconds
#
# Revision: 0
# Processed by: cddbd v1.5.2PL0 Copyright (c) Steve Scherf et al.
# Submitted via: ExactAudioCopy v0.99pb4
#
DISCID=7a06d40a
DTITLE=Johnny Lee - Bet Your Heart On Me
DYEAR=1981
DGENRE=Country
TTITLE0=Bet Your Heart On Me
TTITLE1=Finally Fallin'
TTITLE2=Somebody Like You
TTITLE3=Be There For Me Baby
TTITLE4=I've Come a Long Way (But I Got a Long Way to Go)
TTITLE5=Highways Run On Forever
TTITLE6=A Little Bit Of Lovin'
TTITLE7=Crossfire
TTITLE8=How Deep In Love Am I
TTITLE9=When You Fall In Love
EXTD=
EXTT0=
EXTT1=
EXTT2=
EXTT3=
EXTT4=
EXTT5=
EXTT6=
EXTT7=
EXTT8=
EXTT9=
PLAYORDER=
